<svg width="24" height="24" viewBox="0 0 24 24" fill="none" xmlns="http://www.w3.org/2000/svg">
<g clip-path="url(#clip0_123_133)">
<path fill-rule="evenodd" clip-rule="evenodd" d="M11.293 15.707C11.4805 15.8944 11.7348 15.9998 12 15.9998C12.2652 15.9998 12.5195 15.8944 12.707 15.707L18.364 10.05C18.5462 9.86137 18.6469 9.60876 18.6447 9.34657C18.6424 9.08437 18.5372 8.83356 18.3518 8.64815C18.1664 8.46274 17.9156 8.35757 17.6534 8.3553C17.3912 8.35302 17.1386 8.45381 16.95 8.63597L12 13.586L7.05 8.63597C6.8614 8.45381 6.60879 8.35302 6.3466 8.3553C6.0844 8.35757 5.83359 8.46274 5.64818 8.64815C5.46277 8.83356 5.3576 9.08437 5.35532 9.34657C5.35305 9.60876 5.45384 9.86137 5.636 10.05L11.293 15.707Z" fill="white"/>
</g>
<defs>
<clipPath id="clip0_123_133">
<rect width="24" height="24" fill="white" transform="matrix(1 0 0 -1 0 24)"/>
</clipPath>
</defs>
</svg>
